{
	"asset":{
		"generator":"Khronos glTF Blender I/O v3.5.30",
		"version":"2.0"
	},
	"scene":0,
	"scenes":[
		{
			"name":"Scene",
			"nodes":[
				0
			]
		}
	],
	"nodes":[
		{
			"mesh":0,
			"name":"dino",
			"translation":[
				0,
				0,
				0
			]
		}
	],
	"materials":[
		{
			"doubleSided":true,
			"name":"orange",
			"pbrMetallicRoughness":{
				"baseColorFactor":[
					0.6795425415039062,
					0.08021964877843857,
					0.02028859220445156,
					1
				],
				"metallicFactor":0
			}
		},
		{
			"doubleSided":true,
			"name":"yellow",
			"pbrMetallicRoughness":{
				"baseColorFactor":[
					0.7605244517326355,
					0.3563998341560364,
					0.0012142295017838478,
					1
				],
				"metallicFactor":0
			}
		}
	],
	"meshes":[
		{
			"name":"Cube.001",
			"primitives":[
				{
					"attributes":{
						"POSITION":0,
						"TEXCOORD_0":1,
						"NORMAL":2
					},
					"indices":3,
					"material":0
				},
				{
					"attributes":{
						"POSITION":4,
						"TEXCOORD_0":5,
						"NORMAL":6
					},
					"indices":7,
					"material":1
				}
			]
		}
	],
	"accessors":[
		{
			"bufferView":0,
			"componentType":5126,
			"count":510,
			"max":[
				0.9664850234985352,
				2.2161121368408203,
				1.4763894081115723
			],
			"min":[
				-0.9664850234985352,
				-1.56963050365448,
				-1.2827677726745605
			],
			"type":"VEC3"
		},
		{
			"bufferView":1,
			"componentType":5126,
			"count":510,
			"type":"VEC2"
		},
		{
			"bufferView":2,
			"componentType":5126,
			"count":510,
			"type":"VEC3"
		},
		{
			"bufferView":3,
			"componentType":5123,
			"count":798,
			"type":"SCALAR"
		},
		{
			"bufferView":4,
			"componentType":5126,
			"count":140,
			"max":[
				0.6118106245994568,
				2.2161121368408203,
				1.4763894081115723
			],
			"min":[
				-0.6145109534263611,
				-1.1041451692581177,
				-1.2807550430297852
			],
			"type":"VEC3"
		},
		{
			"bufferView":5,
			"componentType":5126,
			"count":140,
			"type":"VEC2"
		},
		{
			"bufferView":6,
			"componentType":5126,
			"count":140,
			"type":"VEC3"
		},
		{
			"bufferView":7,
			"componentType":5123,
			"count":222,
			"type":"SCALAR"
		}
	],
	"bufferViews":[
		{
			"buffer":0,
			"byteLength":6120,
			"byteOffset":0,
			"target":34962
		},
		{
			"buffer":0,
			"byteLength":4080,
			"byteOffset":6120,
			"target":34962
		},
		{
			"buffer":0,
			"byteLength":6120,
			"byteOffset":10200,
			"target":34962
		},
		{
			"buffer":0,
			"byteLength":1596,
			"byteOffset":16320,
			"target":34963
		},
		{
			"buffer":0,
			"byteLength":1680,
			"byteOffset":17916,
			"target":34962
		},
		{
			"buffer":0,
			"byteLength":1120,
			"byteOffset":19596,
			"target":34962
		},
		{
			"buffer":0,
			"byteLength":1680,
			"byteOffset":20716,
			"target":34962
		},
		{
			"buffer":0,
			"byteLength":444,
			"byteOffset":22396,
			"target":34963
		}
	],
	"buffers":[
		{
			"byteLength":22840,
			"uri":"test.bin"
		}
	]
}
